<?xml version="1.0" standalone="no"?>
<!DOCTYPE svg PUBLIC "-//W3C//DTD SVG 20010904//EN"
 "http://www.w3.org/TR/2001/REC-SVG-20010904/DTD/svg10.dtd">
<svg version="1.0" xmlns="http://www.w3.org/2000/svg"
 width="512.000000pt" height="512.000000pt" viewBox="0 0 512.000000 512.000000"
 preserveAspectRatio="xMidYMid meet">
<metadata>
Created by potrace 1.11, written by Peter Selinger 2001-2013
</metadata>
<g transform="translate(0.000000,512.000000) scale(0.100000,-0.100000)"
fill="#000000" stroke="none">
<path d="M899 5116 c-2 -3 -16 -7 -30 -9 -94 -18 -200 -126 -229 -236 -13 -49
-18 -751 -5 -790 3 -12 20 -28 36 -36 16 -9 29 -19 30 -23 0 -4 1 -38 2 -75 2
-63 0 -68 -21 -74 -49 -12 -52 -29 -52 -299 l0 -251 -57 -90 c-32 -50 -112
-175 -178 -277 -282 -439 -317 -495 -344 -566 -16 -41 -34 -100 -39 -130 -10
-55 -9 -234 2 -279 12 -51 40 -128 64 -176 23 -47 249 -385 334 -502 21 -29
38 -55 38 -59 0 -3 8 -18 19 -32 27 -39 53 -127 56 -188 2 -29 6 -128 10 -221
8 -186 12 -285 14 -324 1 -32 35 -69 64 -69 36 0 70 23 81 55 6 17 18 31 26
31 16 0 138 13 180 19 14 2 61 6 105 10 44 4 87 9 96 10 62 12 179 16 179 7 0
-20 43 -52 70 -52 27 0 69 32 71 53 0 7 2 68 5 137 8 280 14 358 29 410 64
219 44 386 -65 545 l-31 46 47 87 c25 48 54 98 64 112 l18 25 923 -2 c508 0
927 -2 932 -2 7 -1 10 -351 3 -351 -2 0 -65 30 -140 66 -118 58 -144 67 -194
67 -157 2 -274 -157 -233 -319 16 -62 38 -93 162 -225 57 -62 112 -121 122
-133 10 -12 64 -69 119 -129 179 -192 166 -151 167 -529 l1 -303 26 -23 c14
-12 36 -22 48 -22 30 0 66 29 70 55 3 20 11 20 522 20 556 0 520 3 557 -49 9
-12 27 -19 51 -20 30 -1 42 4 58 25 18 24 20 43 21 230 0 112 5 219 11 239 5
19 33 73 62 120 78 129 77 127 64 161 -7 16 -17 29 -22 29 -5 0 2 19 15 42 14
24 30 59 36 78 8 26 17 36 33 37 12 1 31 11 42 23 18 18 21 32 20 103 0 69 -7
102 -44 212 l-44 130 -1 237 -1 238 54 26 c72 35 122 85 158 159 l29 60 0
1360 0 1360 -25 50 c-31 64 -101 134 -165 165 l-50 25 -1986 3 c-1092 1 -1987
0 -1990 -2z"/>
</g>
</svg>
